<svg xmlns="http://www.w3.org/2000/svg" xmlns:xlink="http://www.w3.org/1999/xlink" width="22" height="22" version="1"><defs><linearGradient id="d"><stop offset="0" stop-color="#fff530"/><stop offset="1" stop-color="#cdde5b" stop-opacity="0"/></linearGradient><linearGradient id="c"><stop offset="0"/><stop offset="1" stop-opacity="0"/></linearGradient><linearGradient id="b"><stop offset="0" stop-color="#d7ff38" stop-opacity=".814"/><stop offset="1" stop-color="#e7fd6f" stop-opacity=".854"/></linearGradient><linearGradient id="a"><stop offset="0" stop-color="#61c61a"/><stop offset="1" stop-color="#b8f190"/></linearGradient><linearGradient xlink:href="#a" id="f" x1="29.612" y1="31.838" x2="14.061" y2="11.382" gradientUnits="userSpaceOnUse"/><linearGradient xlink:href="#b" id="g" x1="30.026" y1="28.536" x2="17.009" y2="15.476" gradientUnits="userSpaceOnUse" gradientTransform="matrix(.5682 0 0 .56713 -1.963 -1.768)"/><radialGradient xlink:href="#c" id="e" cx="22.981" cy="42.432" fx="22.981" fy="42.432" r="21.92" gradientTransform="matrix(1 0 0 .18952 0 34.39)" gradientUnits="userSpaceOnUse"/><linearGradient xlink:href="#d" id="h" gradientUnits="userSpaceOnUse" gradientTransform="matrix(.72896 0 0 .71018 -6.085 -5.252)" x1="15.367" y1="27.14" x2="34.263" y2="4.652"/></defs><path d="M44.901 42.432a21.92 4.154 0 1 1-43.84 0 21.92 4.154 0 1 1 43.84 0z" transform="matrix(.50182 0 0 .66197 -.532 -8.838)" opacity=".25" fill="url(#e)"/><path d="M33.082 21.61a10.796 10.228 0 1 1-21.592 0 10.796 10.228 0 1 1 21.592 0z" transform="matrix(.69429 0 0 .73575 -4.478 -5.3)" fill="url(#f)" stroke="#2b590a" stroke-width="1.399"/><path d="M10.22 4.187c-1.385.2-2.698.939-3.696 1.781-1.348 1.336-2.13 3.411-1.918 5.382.158 1.415.921 2.714 1.769 3.733 1.23 1.229 3.11 2.077 4.958 1.94 1.67-.055 3.24-.893 4.386-2.066 1.182-1.435 1.973-3.283 1.65-5.17-.198-1.603-1.114-3.068-2.271-4.16-1.411-.989-3.109-1.686-4.877-1.44z" opacity=".54" fill="none" stroke="#fff"/><path d="M8.727 5.976s1.435.501 1.22 1.074c-.216.573-1.077.716-.718 1.074.359.358.215.931 1.435 1.217 1.22.287 2.87.645 1.578 1.003-1.291.358-1.147 2.005-.573 1.933.573-.071 1.506 0 1.65-.43.143-.429 1.148-2.577.717-3.15-.43-.573.79-.788 1.292.072.502.859 1.076 3.795.358 4.081-.717.287-2.726 1.29-2.941 1.647-.216.358 0 .573-.79.287-.789-.287-1.937-.43-2.51-.358-.575.071-1.077-.86-1.292-1.432-.215-.573-1.148-1.146-1.005-1.72.144-.572 1.148-1.36 1.005-1.718-.144-.358-1.22-.071-.574-1.002s.79-1.218.717-1.647c-.071-.43.36-.86.43-.931z" fill="url(#g)" fill-rule="evenodd" stroke="#516600" stroke-opacity=".286"/><g><path d="M10.43 4.725c-1.398.338-2.813.937-3.757 1.929a7.586 7.586 0 0 0-1.614 3.1c.363.629 1.346.497 2.01.607 3.024.033 5.872-1.302 8.342-2.89.882-.316.14-.899-.321-1.26-1.322-1.029-2.939-1.697-4.66-1.486z" opacity=".5" fill="url(#h)"/></g></svg>