<svg xmlns="http://www.w3.org/2000/svg" xmlns:xlink="http://www.w3.org/1999/xlink" width="16" height="16" version="1"><defs><linearGradient id="c"><stop offset="0" stop-color="#fff530"/><stop offset="1" stop-color="#cdde5b" stop-opacity="0"/></linearGradient><linearGradient id="b"><stop offset="0"/><stop offset="1" stop-opacity="0"/></linearGradient><linearGradient id="d"><stop offset="0" stop-color="#d7ff38" stop-opacity=".814"/><stop offset="1" stop-color="#e7fd6f" stop-opacity=".854"/></linearGradient><linearGradient id="a"><stop offset="0" stop-color="#61c61a"/><stop offset="1" stop-color="#b8f190"/></linearGradient><linearGradient xlink:href="#a" id="e" x1="29.612" y1="31.838" x2="14.061" y2="11.382" gradientUnits="userSpaceOnUse"/><linearGradient xlink:href="#c" id="g" gradientUnits="userSpaceOnUse" gradientTransform="matrix(.5998 0 0 .58295 -6.017 -5.073)" x1="15.367" y1="27.14" x2="34.263" y2="4.652"/><linearGradient xlink:href="#d" id="f" gradientUnits="userSpaceOnUse" gradientTransform="matrix(.43156 0 0 .42973 -1.95 -1.492)" x1="30.026" y1="28.536" x2="17.009" y2="15.476"/></defs><path d="M33.082 21.61a10.796 10.228 0 1 1-21.592 0 10.796 10.228 0 1 1 21.592 0z" transform="matrix(.57126 0 0 .60394 -4.695 -5.112)" fill="url(#e)" stroke="#2b590a" stroke-width="1.916"/><path d="M7.679 2.768c-1.445.124-2.85.92-3.744 2.053-1.438 1.81-1.433 4.591.118 6.336.643.945 1.714 1.473 2.827 1.818 1.446.401 3.085-.071 4.21-.853 1.318-1.057 2.243-2.765 2.12-4.479-.11-1.461-.824-2.735-1.874-3.68-1.07-.719-2.324-1.36-3.657-1.195z" opacity=".54" fill="none" stroke="#fff" stroke-width="1.125"/><path style="marker:none" d="M10.597 6.102s2.325 3.417.895 3.63c-2.337.348-3.378 1.635-4.077 1.243-.943-.528-2.846-.606-2.884-2.586 1.155-.637 1.342-1.74 1.342-1.74s0-1.293-.1-2.188c1.688.383 2.52 1.286 2.52 1.286l.364 1.997c1.79-.398 1.94-1.642 1.94-1.642z" fill="url(#f)" fill-rule="evenodd" stroke="#516600" stroke-width=".563" stroke-opacity=".286" overflow="visible"/><g><path d="M7.644 3.33c-1.22.367-2.606.837-3.235 1.865-.365.639-1.035 1.336-.914 2.074 1.181.454 2.532.228 3.735-.057 1.61-.436 3.144-1.334 4.528-2.123-.253-.534-.787-.709-1.245-1.07a4.39 4.39 0 0 0-2.87-.688z" opacity=".5" fill="url(#g)"/></g></svg>