<svg xmlns="http://www.w3.org/2000/svg" xmlns:xlink="http://www.w3.org/1999/xlink" width="48" height="48" version="1"><defs><linearGradient id="g"><stop offset="0" stop-color="#fff530"/><stop offset="1" stop-color="#cdde5b" stop-opacity="0"/></linearGradient><linearGradient id="f"><stop offset="0"/><stop offset="1" stop-opacity="0"/></linearGradient><linearGradient id="e"><stop offset="0" stop-color="#d7ff38" stop-opacity=".814"/><stop offset="1" stop-color="#e7fd6f" stop-opacity=".854"/></linearGradient><linearGradient id="d"><stop offset="0" stop-color="#61c61a"/><stop offset="1" stop-color="#b8f190"/></linearGradient><linearGradient id="c"><stop offset="0" stop-color="#fff"/><stop offset="1" stop-color="#fff" stop-opacity="0"/></linearGradient><linearGradient id="b"><stop offset="0" stop-color="#fff" stop-opacity=".5"/><stop offset="1" stop-color="#fff" stop-opacity="0"/></linearGradient><linearGradient id="a"><stop offset="0" stop-color="#c6951d"/><stop offset="1" stop-color="#976409"/></linearGradient><linearGradient xlink:href="#a" id="i" gradientUnits="userSpaceOnUse" x1="8.31" y1="5.822" x2="29.303" y2="34.738"/><radialGradient xlink:href="#b" id="p" cx="14.142" cy="15.991" fx="14.142" fy="15.991" r="14.016" gradientTransform="matrix(.84658 .00584 -.00387 .56065 2.231 6.943)" gradientUnits="userSpaceOnUse"/><linearGradient xlink:href="#c" id="k" x1="8.409" y1="3.927" x2="54.908" y2="66.051" gradientUnits="userSpaceOnUse"/><linearGradient xlink:href="#d" id="j" x1="29.612" y1="31.838" x2="14.061" y2="11.382" gradientUnits="userSpaceOnUse"/><linearGradient xlink:href="#e" id="l" x1="30.026" y1="28.536" x2="17.009" y2="15.476" gradientUnits="userSpaceOnUse"/><linearGradient xlink:href="#b" id="o" gradientUnits="userSpaceOnUse" x1="-2.675" y1="-.997" x2="37.763" y2="38.021"/><radialGradient xlink:href="#f" id="h" cx="22.981" cy="42.432" fx="22.981" fy="42.432" r="21.92" gradientTransform="matrix(1 0 0 .18952 0 34.39)" gradientUnits="userSpaceOnUse"/><linearGradient xlink:href="#g" id="n" x1="15.367" y1="27.14" x2="34.263" y2="4.652" gradientUnits="userSpaceOnUse"/></defs><path d="M44.901 42.432a21.92 4.154 0 1 1-43.84 0 21.92 4.154 0 1 1 43.84 0z" transform="matrix(.94355 0 0 1 2.712 .914)" opacity=".25" fill="url(#h)"/><path d="M4.342 15.486c3.46 3.975 2.84 9.068-.076 12.74 3.217 10.053 13.776 15.548 23.33 13.636 1.423-4.599 5.29-6.605 10.542-6.01 9.166-11.36 5.476-20.74.776-26.935-7.908 1.188-10.197-4.938-10.59-6.596C16.784.024 8.204 5.536 4.342 15.486z"/><path d="M4.342 15.486c3.46 3.975 2.84 9.068-.076 12.74 3.217 10.053 13.776 15.548 23.33 13.636 1.423-4.599 5.29-6.605 10.542-6.01 9.166-11.36 5.476-20.74.776-26.935-7.908 1.188-10.197-4.938-10.59-6.596C16.784.024 8.204 5.536 4.342 15.486z" fill="none" stroke="#fffedb"/><path d="M23.5 2.781c-8.242 0-15.275 5.226-18 12.531 1.578 1.97 2.445 4.646 2.156 7.532a10.672 10.672 0 0 1-2.25 5.593c2.655 7.43 9.757 12.75 18.094 12.75 1.139 0 2.26-.09 3.344-.28.003-.01-.004-.022 0-.032 1.247-3.546 4.989-6.125 9.406-6.125.504 0 .985.029 1.469.094 3.075-3.403 4.969-7.898 4.968-12.844 0-4.523-1.597-8.687-4.218-11.969-.403.045-.802.094-1.219.094-4.719 0-8.665-2.954-9.625-6.875a19.02 19.02 0 0 0-4.125-.469z" fill="url(#i)" stroke="#49331a"/><path transform="matrix(1.06359 0 0 1.12933 -.091 -2.1)" d="M33.082 21.61a10.796 10.228 0 1 1-21.592 0 10.796 10.228 0 1 1 21.592 0z" fill="none" stroke="#fffedb" stroke-width=".912"/><path d="M33.082 21.61a10.796 10.228 0 1 1-21.592 0 10.796 10.228 0 1 1 21.592 0z" transform="matrix(.98246 0 0 1.04321 1.717 -.24)" fill="url(#j)" stroke="#2b590a" stroke-width=".988"/><path transform="matrix(.8924 0 0 .9476 3.724 1.827)" d="M33.082 21.61a10.796 10.228 0 1 1-21.592 0 10.796 10.228 0 1 1 21.592 0z" opacity=".54" fill="none" stroke="#fff" stroke-width="1.087"/><path d="M6.624 15.098c.669.991.54 1.127 1.057 2.17 1.427 3.186 1.311 6.267-.113 9.506-.44.794-.46 1.014-.976 1.804.598 2.74 4.283 7.66 9.235 9.994 3.24 1.375 6.715 2.121 10.246 1.365.877-1.832 2.533-3.484 4.296-4.594 1.809-1.016 4.631-1.762 6.8-1.538 2.747-2.296 4.74-8.739 4.6-12.309-.071-3.564-1.729-7.535-3.69-10.44-1.012.143-4.49.064-7.25-1.83-1.77-1.295-3.475-3.324-4.006-5.105C17.618 2.446 9.648 7.88 6.624 15.098z" opacity=".5" fill="none" stroke="url(#k)"/><path d="M18.814 13.655s2.525.884 2.147 1.894c-.38 1.01-1.894 1.263-1.263 1.894s.379 1.641 2.525 2.146c2.147.506 5.051 1.137 2.778 1.768-2.273.632-2.02 3.536-1.01 3.41 1.01-.127 2.652 0 2.904-.758.253-.758 2.02-4.546 1.263-5.556-.758-1.01 1.389-1.389 2.273.126.884 1.516 1.894 6.693.631 7.198-1.263.505-4.798 2.272-5.177 2.904-.379.631 0 1.01-1.389.505s-3.41-.758-4.42-.631c-1.01.126-1.893-1.516-2.272-2.526-.379-1.01-2.02-2.02-1.768-3.03.253-1.01 2.02-2.4 1.768-3.03-.253-.632-2.147-.127-1.01-1.768 1.136-1.642 1.389-2.147 1.262-2.905-.126-.757.632-1.515.758-1.641z" fill="url(#l)" fill-rule="evenodd" stroke="#516600" stroke-width=".5" stroke-opacity=".286"/><g id="m" fill="none" fill-rule="evenodd" stroke="#fffedb"><path d="M13.435 6.546l4.154 5.745"/><path d="M12.64 7.076l4.154 5.745" stroke-opacity=".384"/><path d="M14.23 6.016l4.155 5.745" stroke-opacity=".382"/></g><use xlink:href="#m" transform="rotate(-115.934 24.332 22.041)" width="48" height="48"/><use xlink:href="#m" transform="rotate(-53.939 39.814 -6.753)" width="48" height="48"/><g><path d="M22.829 13.138c-2.263 0-8.392 2.774-8.392 8.862 5.468 3.157 16.347-3.048 17.063-4.344-2.847-4.67-7.069-4.518-8.671-4.518z" opacity=".5" fill="url(#n)"/></g><g><path d="M22.563 3.281c-3.92.19-7.707 1.729-10.768 4.154-1.138.769-2.288 1.925-3.002 3.112-.983 1.48-2.047 2.937-2.668 4.61 2.442 3.489 2.707 8.388.66 12.147-.214.613-1.148 1.246-.535 1.915.779 1.856 2.069 3.57 3.19 5.138a8.932 8.932 0 0 0 2.36 2.14c2.13 1.679 4.54 3 7.182 3.666 2.349.577 4.813.703 7.206.368.649-.3.62-1.181 1.11-1.729 1.03-1.231 2.238-2.459 3.628-3.272 2.034-.927 4.33-1.497 6.574-1.155 1.818-2.441 3.534-5.057 4.184-8.079 1.208-4.921.272-10.367-2.665-14.513-.387-.352-.535-1.224-1.06-1.255-2.628.215-5.418-.515-7.471-2.157-1.282-1.097-2.516-2.325-2.988-3.996-.144-.919-1.179-.94-1.911-.986-.996-.164-2.02-.157-3.026-.108z" opacity=".5" fill="url(#o)"/><path d="M28.158 15.99a14.016 10.67 0 1 1-28.032 0 14.016 10.67 0 1 1 28.032 0z" transform="matrix(.91054 .54412 -.54412 .91054 9.966 -6.265)" opacity=".7" fill="url(#p)"/></g></svg>